<svg id="Layer_1" data-name="Layer 1" xmlns="http://www.w3.org/2000/svg" viewBox="0 0 720 720"><defs><style>.cls-1{fill:#fff;}.cls-2{fill:#05d8a5;stroke:#05d8a5;stroke-miterlimit:10;}</style></defs><rect class="cls-1" x="36.41" y="214.89" width="630.96" height="260.93" rx="1.66"/><rect class="cls-1" x="36.41" y="214.89" width="630.96" height="260.93" rx="1.66" transform="translate(697.25 -6.53) rotate(90)"/><path class="cls-2" d="M385.18,408.07a55.68,55.68,0,0,0-3.52-9.88c-.27-.6-.51-1-.64-1.33a173.79,173.79,0,0,0-17.85-32.92c-6.55-9.48-13-19-21.67-26.8a17.46,17.46,0,0,1-5.54-8c-.87-3-2.92-5.05-5.2-7a143,143,0,0,0-19-14.15c-9.28-5.64-18.56-11.3-28.95-14.79-12.65-6.36-26.1-10.89-39-16.78-4.18-1.91-8.24-4.13-12.3-6.31s-7.44-5.42-10.66-8.73a13.34,13.34,0,0,1-3.47-7,24.47,24.47,0,0,1-.59-4.88c.15-8-1.85-15.68-2.57-23.55-.53-5.69-3.25-10.64-6-15.49a4.72,4.72,0,0,0-5.25-1.78c-3.76,1.14-5.42,3.58-4.94,7.39a25.58,25.58,0,0,0,.89,4.85c1.5,4.43,1.83,9,2.08,13.61.14,2.63.42,5.25.66,7.87a142.17,142.17,0,0,1-.07,28.58c-.37,3.27-.45,6.58-.69,9.85s-.28,6.6-.82,9.84c-1.88,11.41-1.24,23-2.23,34.45,1,13.78,0,27.68,2.58,41.35a78.72,78.72,0,0,1,.69,7.88,34.74,34.74,0,0,0,.47,4.9c2.25,9.61,4.6,19.2,6.9,28.8a13.62,13.62,0,0,0,3.64,6.89,30.51,30.51,0,0,1,6.41,9.89,259.47,259.47,0,0,0,13.68,25.12c5.94,10,13.46,18.65,21.35,27a92.55,92.55,0,0,0,7.89,7.45,14.13,14.13,0,0,0,14.78,2.67c3.41-1.21,6.82-2.4,10.19-3.71a25.88,25.88,0,0,0,10.49-7.18,7.94,7.94,0,0,0,2.26-4.28c.25-2-.4-4.68-2.22-5.83-4-2.54-11.77,3.92-12.18,4.27-1,.89-2.92,2.7-3.62,3.35-1.44,1.35-2.84,2.76-4.36,4-3.76,3.08-6.57,3.12-10.71.15a34.37,34.37,0,0,1-3.76-3.18C246.21,459.2,234.21,440.84,225,420.6a19.77,19.77,0,0,1-2.16-10.45c.2-2.2-.56-4.55-1.2-6.75A222.31,222.31,0,0,1,213,356.9c-.48-6.36-.38-10.58,1.22-15.29a39.44,39.44,0,0,1,7.28-12.21,55.25,55.25,0,0,1,9.75-9.43,58.89,58.89,0,0,1,20.32-9.76c5.32-1.51,13.29-3.76,23.35-2.38,13.51,1.86,23,9.18,27,12.22,11.49,8.82,14.78,12.32,14.78,12.32,2.3,2.44,3.9,4.49,7.18,5.89,3.52,1.5,5.78.87,9.18,2.93a15.78,15.78,0,0,1,4.71,4.57c5,6.78,10.46,13.2,15,20.28,4.92,7.7,9.76,15.1,15.85,26.14,2.77,5,5.4,10.05,3.86,15.42a16.43,16.43,0,0,1-4.72,7.22c-4,3.66-6.5,2.46-11.78,6.49-2.38,1.82-5.57,4.26-5.5,7.65a7.32,7.32,0,0,0,2.29,4.78,7.54,7.54,0,0,0,4.21,1.79c5.69.82,10.51-3.33,11.43-4.15,3.45-3.09,2.18-4.37,5.57-7.57,4.11-3.87,7-3,9.49-6.21C384.68,416,385.89,413.18,385.18,408.07ZM249.75,295.94a4.66,4.66,0,0,1-1.39,1.31,19.16,19.16,0,0,1-2.82.86l-5.69,1.56a28.91,28.91,0,0,0-11.95,6.63c-3.86,3.55-8,6.78-11.26,11-.2.27-.37.62-.64.75a10.93,10.93,0,0,1-2.55,1c-.71.12-1.53-1.23-1.46-2.28.2-3.28.43-6.55.65-9.82a2.07,2.07,0,0,0-.35,0c.6-5.56,1.22-11.1,1.8-16.64.31-3.25.52-6.52.83-9.78a2.77,2.77,0,0,1,3.81-1.9c4.37,2.27,8.7,4.62,13.11,6.8,5.59,2.75,11.25,5.39,16.87,8.07C249.45,293.84,250.15,295.47,249.75,295.94Z"/><path class="cls-2" d="M393.07,526.1c-1.38,3.94-3.07,6.1-4.76,9.48a3.65,3.65,0,0,1-4.09,1.78c-2.45-.9-6-.54-7.15-2.88a5.62,5.62,0,0,1-.1-3.9,48.46,48.46,0,0,1,3.85-11.07c.48-.89,4.74-9.06,6-11.28,5.15-9.1,5-9.19,7.14-12.8a210,210,0,0,1,18.22-26.94c5.59-6.91,11.12-13.87,16.88-20.64,8.75-10.29,18.17-19.94,27.82-29.39,6.59-6.44,13.15-12.9,19.92-19.16a117.74,117.74,0,0,0,23.88-31.24,62.14,62.14,0,0,0,2.79-6.3c6-14.85,8.32-30.41,9.2-46.27.46-8.26-.69-16.45-1.42-24.63a185.06,185.06,0,0,0-3.5-22.41,284.24,284.24,0,0,0-12.06-41.67c-1.05-2.77-2.07-5.55-3-8.36a15.88,15.88,0,0,1-.74-3.86,5.46,5.46,0,0,1,3.35-5.53,5.53,5.53,0,0,1,6.41.62,13,13,0,0,1,3.42,4.74,199.36,199.36,0,0,1,12.63,35.28c2.36,8.88,5,17.73,5.74,27,.28,3.58,1.33,7.1,1.84,10.68a168.2,168.2,0,0,1,.16,44.32c-2.94,23.31-10.81,44.73-25.69,63.22a118.46,118.46,0,0,1-9.25,10.26c-7.76,7.61-15.7,15-23.57,22.52-.47.46-1,.87-1.44,1.35-14.53,15.25-29.44,30.18-42,47.14,0,0-14.7,20-25.29,40C394.93,522.4,393.28,525.52,393.07,526.1Z"/><path class="cls-2" d="M397.82,571.25A45.15,45.15,0,0,0,391.36,558c-9.92-13.71-30.12-19.23-45.13-13.93-15.65,5.54-26.65,19-28,38.17a4.66,4.66,0,0,0,0,1c1,5.49,1.38,11.18,4,16.25,7.68,15.1,19.92,23.21,37.71,23.71,2.26-.25,5.35-.13,8.14-1,11-3.32,20.31-8.84,26-19.62C399.49,592.49,401.28,582.26,397.82,571.25ZM380.54,598.5c-5.15,6.82-12,11.11-21.37,10.57A27.43,27.43,0,0,1,346.22,606c-5-2.68-9.23-6.22-11.13-11.88-.64-1.86-1.43-3.66-2.06-5.52a16,16,0,0,1-.78-7.75c1.3-8,4.54-15.08,11.23-20.06,4.95-3.69,10.78-4.5,16.75-4.58a23.59,23.59,0,0,1,3.88.57c10.05,1.49,16.5,7.35,20,16.66A25,25,0,0,1,380.54,598.5Z"/></svg>